<svg width="28" height="32" viewBox="0 0 28 32" fill="none" xmlns="http://www.w3.org/2000/svg">
<g clip-path="url(#clip0_1_184)">
<path d="M24.5 13.3333C24.5 22.6666 14 30.6666 14 30.6666C14 30.6666 3.5 22.6666 3.5 13.3333C3.5 10.1507 4.60625 7.09847 6.57538 4.84803C8.54451 2.59759 11.2152 1.33331 14 1.33331C16.7848 1.33331 19.4555 2.59759 21.4246 4.84803C23.3938 7.09847 24.5 10.1507 24.5 13.3333Z" stroke="#383838" stroke-width="4" stroke-linecap="round" stroke-linejoin="round"/>
<path d="M14 17.3333C15.933 17.3333 17.5 15.5425 17.5 13.3333C17.5 11.1242 15.933 9.33331 14 9.33331C12.067 9.33331 10.5 11.1242 10.5 13.3333C10.5 15.5425 12.067 17.3333 14 17.3333Z" stroke="#383838" stroke-width="4" stroke-linecap="round" stroke-linejoin="round"/>
</g>
<defs>
<clipPath id="clip0_1_184">
<rect width="28" height="32" fill="white"/>
</clipPath>
</defs>
</svg>
